<svg xmlns="http://www.w3.org/2000/svg" width="1254" height="1254"><path fill="currentColor" d="M601 175c-.8.5-2.5 1-3.6 1s-4.4.6-7 1.4l-10.9 3.2a241 241 0 0 0-41.2 20.4c-.5 0-2.4 1.6-4.3 3.5s-3.9 3.5-4.6 3.5c-1.3 0-23.2 21.8-24.7 24.6-.5 1.1-2.2 3.2-3.7 4.9-2.5 2.8-11 15.9-11 17l-3.3 5.7c-1.9 2.9-12.9 24.6-24.6 48.3L438.9 355c-1.1 1.9-38.6 76.8-83.5 166.5a21826 21826 0 0 1-83.5 165.7 97 97 0 0 0-6 11.5l-5.4 11.3c-1.3 2.3-23.2 45.3-27.6 54.1-2.7 5.3-7.2 17.9-11.1 30.7-3.2 10.6-5 46-2.8 53.5.6 2.1 1.3 5.7 1.6 8s.9 5.5 1.3 7.2a148 148 0 0 0 25.1 53.4c10.3 13 21.3 22.7 35 31.3 7.6 4.7 24.8 13 29 13.9l9.5 2.4c11.7 3.2 18.2 3.9 39.5 3.9 22.8 0 30.3-.8 44-4.7a175 175 0 0 0 77.9-44.2 184 184 0 0 0 28.6-35 1519.5 1519.5 0 0 0 25.8-36.6 2180 2180 0 0 1 43.2-61.2 1308 1308 0 0 1 22.2-31.6 158 158 0 0 1 37-37.4c11.2-7 27.7-13.6 42.3-16.6 4-.9 31.9-1.1 104-.9 85.1.3 98.9.5 101.5 1.8s5.6 6.6 19.3 33.5l24.8 48.5c3.3 5.6 11.6 22.4 13.2 26.8a44 44 0 0 1 1.7 14.7 38 38 0 0 1-4.6 21.2 62 62 0 0 1-17.3 18 54 54 0 0 1-20.6 4.6c-8.2.2-14.1-1.2-36.5-8.4-9.9-3.3-18.6-5.9-19.4-5.9-.9 0-4.5-1.1-8.1-2.4a394 394 0 0 0-22.5-7.6 240 240 0 0 1-18-6.1l-7.5-2.4a194 194 0 0 1-15-4.9c-3-1-6.4-2.1-7.5-2.6l-8-2.4c-3.3-.9-8-2.4-10.5-3.2l-8-2.6c-1.9-.5-15-4.8-29-9.5-24.3-8.1-25.9-8.5-34.5-8.6a41 41 0 0 0-15.1 2.1c-6 2.1-14 6.8-17.6 10.4-.9.9-3 2.4-4.5 3.2s-4.6 3.3-6.8 5.5c-2.1 2.3-4.4 4.1-5 4.1s-2.4 1.4-4.1 3.1a46 46 0 0 1-7.9 6.4c-2.7 1.8-7 5.4-9.5 7.9a20 20 0 0 1-5.5 4.6c-.6 0-3 2-5.4 4.4-6.5 6.6-6.7 6.4 15.9 15.9 4.7 1.9 11.7 4.8 15.5 6.2l19.5 7.7c6.9 2.8 15.9 6.3 20 7.8l15.5 6c4.4 1.8 13.6 5.2 20.5 7.7a1808 1808 0 0 1 38.5 14c2.2.9 12.1 4.4 22 7.8l32.5 11.4 17.5 6.1c2.6.7 11.7 3.7 18 6l8.5 3 17 5.9c10.8 3.8 19.2 6 31.5 8.1 7.6 1.3 27.3.9 36.5-.8a135.4 135.4 0 0 0 97.7-78.5 156 156 0 0 0 12.4-51.3c1-11 .9-14.7-.4-24.9a146 146 0 0 0-7.8-34.9c-2.7-6.7-35.1-72-43-86.6-2.5-4.5-31.4-62.1-132.9-264.5a32997 32997 0 0 0-83-165l-4.5-8c-11.1-20.5-25.5-36.2-49.4-53.6a207 207 0 0 0-35.3-18c-2.4-.6-6.8-2-9.8-3-14-4.5-17.3-4.9-42.8-4.9-14.2 0-25.3.4-26.2 1m38.5 97.1 7.5 1.8c11.4 2.5 28.7 15.3 37 27.6 7.2 10.8 18.1 31.7 63.7 123 9.7 19.2 18.1 35.7 18.8 36.5s13.3 25.5 28 54.9a3500 3500 0 0 0 32.6 63.8c3.2 5.8 6.6 12.6 7.6 15.1 2 5.3 6.8 15 8.7 17.2 3.5 4.3 10.1 21.2 9.2 23.5-.5 1.5-.9 1.4-3.8-.2-1.7-1-6.9-5.3-11.4-9.5-6-5.6-10.8-9-17.6-12.4-15.2-7.8-15.1-7.7-76.3-8.2-33.7-.2-55.9.1-59 .7l-22 4.1c-14.1 2.5-19 4.1-40.5 13.5-11.6 5.1-12.1 5.3-19 9.5l-10.1 5.9a25 25 0 0 0-4.8 3.5q-1.3 1.5-2.4 1.6c-.6 0-4 2.8-7.7 6.2s-8.5 7.5-10.8 9-5.8 5-7.9 7.9a192 192 0 0 1-10.4 12.3 116 116 0 0 0-10.4 13.1 116 116 0 0 1-9.9 13.3 225 225 0 0 1-12.1 17.2 60 60 0 0 0-4.5 6.7c-.5 1.2-1.8 3.1-2.9 4.2a89 89 0 0 0-8.6 12c-.5.9-2.6 3.7-4.5 6.1l-4.5 6.1a248 248 0 0 1-12.5 18.4 137 137 0 0 0-11 15.5 71 71 0 0 1-6 8.5q-3.2 3.8-9.5 13.6c-1.8 2.9-4.8 7.2-10.1 14.4a210 210 0 0 1-27.7 28.4 91.7 91.7 0 0 1-36.7 15.4 134 134 0 0 1-31 0 60 60 0 0 1-25.3-13 43 43 0 0 1-11.9-21.8 35 35 0 0 1 .8-23.3c2.4-8.1 15-34.5 24.5-51.7 2.5-4.4 5.3-9.8 6.3-12 2.9-6.2 3.9-8.2 28.1-56l40.8-81c9.9-19.8 18.8-37.1 19.7-38.5 1-1.4 14.2-27.5 29.5-58s28.4-56.2 29-57c1.2-1.5 23.9-45.9 52.4-102.5 28-55.6 31.4-61.2 42.6-70.1 8.7-7 16.7-11.1 27-14a67 67 0 0 1 29-1.3"/></svg>